<svg width="20" height="20" viewBox="0 0 20 20" fill="none" xmlns="http://www.w3.org/2000/svg">
<path d="M7.50002 15.4167H12.5M5.50002 1.66667H14.5C14.9667 1.66667 15.2001 1.66667 15.3783 1.7575C15.5351 1.83739 15.6626 1.96488 15.7425 2.12168C15.8334 2.29994 15.8334 2.53329 15.8334 3.00001V4.72877C15.8334 5.13642 15.8334 5.34025 15.7873 5.53206C15.7465 5.70212 15.6791 5.86469 15.5878 6.01381C15.4847 6.18201 15.3406 6.32613 15.0523 6.61439L12.6095 9.0572C12.2795 9.38721 12.1145 9.55222 12.0527 9.74249C11.9983 9.90986 11.9983 10.0901 12.0527 10.2575C12.1145 10.4478 12.2795 10.6128 12.6095 10.9428L15.0523 13.3856C15.3406 13.6739 15.4847 13.818 15.5878 13.9862C15.6791 14.1353 15.7465 14.2979 15.7873 14.468C15.8334 14.6598 15.8334 14.8636 15.8334 15.2712V17C15.8334 17.4667 15.8334 17.7001 15.7425 17.8783C15.6626 18.0351 15.5351 18.1626 15.3783 18.2425C15.2001 18.3333 14.9667 18.3333 14.5 18.3333H5.50002C5.03331 18.3333 4.79995 18.3333 4.62169 18.2425C4.46489 18.1626 4.33741 18.0351 4.25751 17.8783C4.16669 17.7001 4.16669 17.4667 4.16669 17V15.2712C4.16669 14.8636 4.16669 14.6598 4.21274 14.468C4.25357 14.2979 4.32091 14.1353 4.41229 13.9862C4.51536 13.818 4.65948 13.6739 4.94774 13.3856L7.39055 10.9428C7.72056 10.6128 7.88557 10.4478 7.94739 10.2575C8.00177 10.0901 8.00177 9.90986 7.94739 9.74249C7.88557 9.55222 7.72055 9.38721 7.39054 9.0572L4.94773 6.61439C4.65948 6.32614 4.51536 6.18201 4.41229 6.01381C4.32091 5.86469 4.25357 5.70212 4.21274 5.53206C4.16669 5.34025 4.16669 5.13642 4.16669 4.72877V3.00001C4.16669 2.53329 4.16669 2.29994 4.25751 2.12168C4.33741 1.96488 4.46489 1.83739 4.62169 1.7575C4.79995 1.66667 5.03331 1.66667 5.50002 1.66667Z" stroke="#5967FF" stroke-width="1.5" stroke-linecap="round" stroke-linejoin="round"/>
</svg>
